<?xml version="1.0" encoding="UTF-8"?>
<svg width="200" height="60" viewBox="0 0 200 60" fill="none" xmlns="http://www.w3.org/2000/svg">
  <!-- Moroccan pattern background -->
  <path d="M20 10C20 4.47715 24.4772 0 30 0H170C175.523 0 180 4.47715 180 10V50C180 55.5228 175.523 60 170 60H30C24.4772 60 20 55.5228 20 50V10Z" fill="#F5F5F5"/>
  <path d="M30 0C24.4772 0 20 4.47715 20 10V50C20 55.5228 24.4772 60 30 60H170C175.523 60 180 55.5228 180 50V10C180 4.47715 175.523 0 170 0H30Z" fill="url(#paint0_linear)" fill-opacity="0.1"/>
  
  <!-- Decorative elements -->
  <path d="M40 30C40 34.4183 36.4183 38 32 38C27.5817 38 24 34.4183 24 30C24 25.5817 27.5817 22 32 22C36.4183 22 40 25.5817 40 30Z" fill="#C53030"/>
  <path d="M176 30C176 34.4183 172.418 38 168 38C163.582 38 160 34.4183 160 30C160 25.5817 163.582 22 168 22C172.418 22 176 25.5817 176 30Z" fill="#C53030"/>
  
  <!-- Text -->
  <path d="M52 36H46V20H52V23H50V24H52V27H50V28H52V36Z" fill="#1A202C"/>
  <path d="M60 36H54V20H60V36Z" fill="#1A202C"/>
  <path d="M65 36V20H71V23H67V25H70V28H67V33H71V36H65Z" fill="#1A202C"/>
  <path d="M77 36H71V20H77V23H73V25H76V28H73V33H77V36Z" fill="#1A202C"/>
  <path d="M86 36H80V20H86V23H82V25H85V28H82V33H86V36Z" fill="#1A202C"/>
  <path d="M95 36H89V20H95V23H91V25H94V28H91V33H95V36Z" fill="#1A202C"/>
  <path d="M104 36H98V20H104V23H100V25H103V28H100V33H104V36Z" fill="#1A202C"/>
  <path d="M113 36H107V20H113V23H109V25H112V28H109V33H113V36Z" fill="#1A202C"/>
  <path d="M122 36H116V20H122V23H118V25H121V28H118V33H122V36Z" fill="#1A202C"/>
  
  <defs>
    <linearGradient id="paint0_linear" x1="100" y1="0" x2="100" y2="60" gradientUnits="userSpaceOnUse">
      <stop stop-color="#C53030"/>
      <stop offset="1" stop-color="#9B2C2C" stop-opacity="0"/>
    </linearGradient>
  </defs>
</svg>
